<svg xmlns="http://www.w3.org/2000/svg" viewBox="0 0 800 460"><defs><radialGradient id="bg" cx="50%" cy="45%"><stop offset="0" stop-color="#171717"/><stop offset="1" stop-color="#050505"/></radialGradient><filter id="glow"><feGaussianBlur stdDeviation="6" result="b"/><feMerge><feMergeNode in="b"/><feMergeNode in="SourceGraphic"/></feMerge></filter></defs><rect width="800" height="460" fill="url(#bg)"/><g opacity=".18" stroke="#fff" fill="none"><path d="M0 90h800M0 180h800M0 270h800M0 360h800"/><path d="M120 0v460M240 0v460M360 0v460M480 0v460M600 0v460M720 0v460"/></g><g transform="translate(400 195)" filter="url(#glow)"><path d="M-130-140h260v130c0 90-65 155-130 190C-65 145-130 80-130-10Z" fill="#123a63" stroke="#f4f4f4" stroke-width="12"/><polygon points="0,-85 25,-22 93,-22 38,18 58,82 0,43 -58,82 -38,18 -93,-22 -25,-22" fill="#fff"/><text y="140" text-anchor="middle" fill="#fff" font-size="48" font-family="Arial" font-weight="900">R.P.D.</text></g><text x="400" y="410" text-anchor="middle" fill="#d7d7d7" font-family="Arial" font-size="25" font-weight="700" letter-spacing="5">RACCOON CITY POLICE DEPARTMENT</text></svg>